<?xml version="1.0" encoding="utf-8"?>
<!-- Generator: Adobe Illustrator 23.0.3, SVG Export Plug-In . SVG Version: 6.00 Build 0)  -->
<svg version="1.1" id="Layer_1" xmlns="http://www.w3.org/2000/svg" xmlns:xlink="http://www.w3.org/1999/xlink" x="0px" y="0px"
	 viewBox="0 0 32 32" style="enable-background:new 0 0 32 32;" xml:space="preserve">
<style type="text/css">
	.st0{clip-path:url(#SVGID_2_);}
	.st1{clip-path:url(#SVGID_4_);}
</style>
<g>
	<g>
		<g>
			<path d="M25,28c-0.1806641,0-0.3613281-0.0488281-0.5214844-0.1464844l-18-11C6.1816406,16.6713867,6,16.3481445,6,16
				s0.1816406-0.6713867,0.4785156-0.8535156l18-11c0.3095703-0.1889648,0.6943359-0.1958008,1.0107422-0.0185547
				C25.8046875,4.3046875,26,4.6381836,26,5v22c0,0.3618164-0.1953125,0.6953125-0.5107422,0.8720703
				C25.3369141,27.9575195,25.1679688,28,25,28z M8.9179688,16L24,25.2167969V6.7832031L8.9179688,16z"/>
		</g>
	</g>
	<g>
		<path d="M7,28c-0.5527344,0-1-0.4477539-1-1V5c0-0.5522461,0.4472656-1,1-1s1,0.4477539,1,1v22C8,27.5522461,7.5527344,28,7,28z"
			/>
	</g>
</g>
</svg>
